<svg width="463" height="114" viewBox="0 0 463 114" fill="none" xmlns="http://www.w3.org/2000/svg">
<g clip-path="url(#clip0_1_9)">
<path d="M52.7651 14.4817L42.8917 25.723C39.9463 26.638 37.209 28.3266 34.8917 30.6574L29.755 35.8687C27.7852 37.8697 25.2235 38.9629 22.5898 38.9519L18.7835 38.936L18.6584 67.197C22.5795 67.3459 26.3008 69.194 29.0742 72.4071L35.8831 80.2958L37.222 81.8469L42.3861 87.8299C43.5719 89.2038 45.5327 89.212 46.7307 87.8481C47.0592 87.4741 47.311 87.0336 47.4477 86.5705C47.9934 84.8727 49.2487 83.5973 50.7884 83.2063C52.328 82.8153 53.9405 83.352 55.0498 84.6593L57.1156 87.0083C59.3342 89.5788 62.9484 89.5939 65.1705 87.042C66.2138 85.8541 66.7781 84.333 66.8427 82.7656C66.9282 80.823 67.9355 79.105 69.4771 78.2724C71.0187 77.4399 72.8058 77.624 74.1657 78.7557C75.9662 80.2425 78.4854 80.0544 80.1085 78.2065C81.9247 76.1386 81.9396 72.7826 80.1416 70.7217L65.6439 53.925L58.7294 61.1823C53.4566 66.7242 45.4014 66.7789 40.0812 61.3031C34.0148 55.0513 33.9283 44.1879 39.8777 37.7877L53.4185 23.2278C58.7111 17.5535 65.6842 14.4032 72.9317 14.4335C79.8716 14.4625 86.5678 17.4271 91.7157 22.7255L97.4759 28.6669L120.333 28.7624C122.025 28.7695 123.402 30.365 123.394 32.3079L123.19 78.232C123.173 82.14 120.41 85.2858 117.007 85.2715L110.856 85.2458C108.587 85.2363 106.594 83.8149 105.546 81.6909L89.2249 81.6227C88.5648 83.0993 87.6934 84.5087 86.6114 85.7406C83.3074 89.5024 78.7448 90.9626 74.4806 90.1279C73.7814 91.7367 72.8328 93.2342 71.6542 94.5761C66.3793 100.582 58.168 101.143 52.3453 96.2838C47.4998 100.856 40.3112 100.539 35.8167 95.3094L30.6718 89.3265L29.3329 87.7754L22.524 79.8867C21.472 78.6679 20.091 77.9556 18.6114 77.817C18.5942 81.7028 15.8119 84.8485 12.4285 84.8344L6.2768 84.8087C2.87414 84.7945 0.139079 81.6257 0.156378 77.7177L0.359664 31.7936C0.368265 29.8507 1.75943 28.2668 3.45115 28.2739L22.6367 28.354C23.0212 28.3557 23.3872 28.2026 23.6576 27.9167L28.775 22.7274C34.1627 17.2963 41.0775 14.3004 48.248 14.3303L50.2281 14.3386C51.074 14.3422 51.9389 14.3899 52.7651 14.4817ZM104.766 71.0896L104.907 39.296L95.6796 39.2574C94.5454 39.2527 93.4518 38.7624 92.629 37.8978L85.5674 30.6263C82.0844 27.0349 77.5755 25.051 72.8848 25.0314C68.0019 25.011 63.3017 27.133 59.7283 30.9599L46.1875 45.5198C44.1979 47.6752 44.2202 51.3184 46.2488 53.4024C48.0285 55.2424 50.7393 55.2096 52.4969 53.3622L66.3839 38.7596C68.2574 36.7803 71.1788 36.925 72.8994 39.096C74.62 41.2669 74.4899 44.6004 72.5972 46.5796L72.4426 46.7556L86.6726 63.2421C88.5852 65.458 89.8227 68.1789 90.3677 71.0074L104.747 71.0675L104.766 71.0896ZM12.4754 74.2365C12.4795 73.2996 12.1595 72.3997 11.5856 71.7348C11.0117 71.0699 10.231 70.6945 9.41519 70.6911C8.59943 70.6876 7.81543 71.0566 7.23566 71.7166C6.65589 72.3767 6.32786 73.2739 6.32371 74.2108C6.31956 75.1477 6.63964 76.0476 7.21355 76.7125C7.78745 77.3774 8.56815 77.7529 9.38392 77.7563C10.1997 77.7597 10.9837 77.3908 11.5634 76.7307C12.1432 76.0706 12.4713 75.1734 12.4754 74.2365ZM113.963 78.1934C114.778 78.1968 115.562 77.8279 116.142 77.1678C116.722 76.5078 117.05 75.6106 117.054 74.6737C117.058 73.7368 116.738 72.8369 116.164 72.172C115.59 71.5071 114.81 71.1316 113.994 71.1282C113.178 71.1248 112.394 71.4937 111.814 72.1538C111.235 72.8139 110.907 73.711 110.902 74.648C110.898 75.5849 111.218 76.4848 111.792 77.1497C112.366 77.8146 113.147 78.19 113.963 78.1934Z" fill="#170F49"/>
</g>
<path d="M156.273 48.5547H144.414V56.8047H155.312V62.9453H144.414V76H136.844V42.3906H156.273V48.5547ZM168.508 76H161.102V40.4688H168.508V76ZM186.18 76.5859C182.18 76.5859 179.031 75.4688 176.734 73.2344C174.453 70.9844 173.312 67.9375 173.312 64.0938C173.312 60.125 174.5 57.0234 176.875 54.7891C179.25 52.5391 182.461 51.4141 186.508 51.4141C190.492 51.4141 193.617 52.5391 195.883 54.7891C198.148 57.0234 199.281 59.9844 199.281 63.6719C199.281 67.6562 198.109 70.8047 195.766 73.1172C193.438 75.4297 190.242 76.5859 186.18 76.5859ZM186.367 57.0859C184.617 57.0859 183.258 57.6875 182.289 58.8906C181.32 60.0938 180.836 61.7969 180.836 64C180.836 68.6094 182.695 70.9141 186.414 70.9141C189.961 70.9141 191.734 68.5469 191.734 63.8125C191.734 59.3281 189.945 57.0859 186.367 57.0859ZM238.844 52L231.93 76H224.148L220.609 61.9375C220.375 61 220.242 59.9766 220.211 58.8672H220.07C219.961 60.0859 219.805 61.0781 219.602 61.8438L215.805 76H208.117L201.344 52H208.891L212.195 67.6562C212.352 68.3906 212.469 69.2812 212.547 70.3281H212.688C212.766 69.2344 212.906 68.3125 213.109 67.5625L217.234 52H224.289L227.992 67.6562C228.086 68.0469 228.195 68.9531 228.32 70.375H228.484C228.562 69.4688 228.688 68.5625 228.859 67.6562L231.977 52H238.844ZM294.672 76H287.195V55.8906C287.195 53.7188 287.289 51.3203 287.477 48.6953H287.289C286.898 50.7578 286.547 52.2422 286.234 53.1484L278.359 76H272.172L264.156 53.3828C263.938 52.7734 263.586 51.2109 263.102 48.6953H262.891C263.094 52.0078 263.195 54.9141 263.195 57.4141V76H256.375V42.3906H267.461L274.328 62.3125C274.875 63.9062 275.273 65.5078 275.523 67.1172H275.664C276.086 65.2578 276.531 63.6406 277 62.2656L283.867 42.3906H294.672V76ZM321.555 76H314.547V72.5547H314.453C312.844 75.2422 310.461 76.5859 307.305 76.5859C304.977 76.5859 303.141 75.9297 301.797 74.6172C300.469 73.2891 299.805 71.5234 299.805 69.3203C299.805 64.6641 302.562 61.9766 308.078 61.2578L314.594 60.3906C314.594 57.7656 313.172 56.4531 310.328 56.4531C307.469 56.4531 304.75 57.3047 302.172 59.0078V53.4297C303.203 52.8984 304.609 52.4297 306.391 52.0234C308.188 51.6172 309.82 51.4141 311.289 51.4141C318.133 51.4141 321.555 54.8281 321.555 61.6562V76ZM314.594 66.25V64.6328L310.234 65.1953C307.828 65.5078 306.625 66.5938 306.625 68.4531C306.625 69.2969 306.914 69.9922 307.492 70.5391C308.086 71.0703 308.883 71.3359 309.883 71.3359C311.273 71.3359 312.406 70.8594 313.281 69.9062C314.156 68.9375 314.594 67.7188 314.594 66.25ZM350.594 76H343.211V62.6641C343.211 58.9453 341.883 57.0859 339.227 57.0859C337.945 57.0859 336.891 57.5781 336.062 58.5625C335.234 59.5469 334.82 60.7969 334.82 62.3125V76H327.414V52H334.82V55.7969H334.914C336.68 52.875 339.25 51.4141 342.625 51.4141C347.938 51.4141 350.594 54.7109 350.594 61.3047V76ZM376.445 76H369.438V72.5547H369.344C367.734 75.2422 365.352 76.5859 362.195 76.5859C359.867 76.5859 358.031 75.9297 356.688 74.6172C355.359 73.2891 354.695 71.5234 354.695 69.3203C354.695 64.6641 357.453 61.9766 362.969 61.2578L369.484 60.3906C369.484 57.7656 368.062 56.4531 365.219 56.4531C362.359 56.4531 359.641 57.3047 357.062 59.0078V53.4297C358.094 52.8984 359.5 52.4297 361.281 52.0234C363.078 51.6172 364.711 51.4141 366.18 51.4141C373.023 51.4141 376.445 54.8281 376.445 61.6562V76ZM369.484 66.25V64.6328L365.125 65.1953C362.719 65.5078 361.516 66.5938 361.516 68.4531C361.516 69.2969 361.805 69.9922 362.383 70.5391C362.977 71.0703 363.773 71.3359 364.773 71.3359C366.164 71.3359 367.297 70.8594 368.172 69.9062C369.047 68.9375 369.484 67.7188 369.484 66.25ZM405.836 73.2578C405.836 77.7109 404.547 81.1562 401.969 83.5938C399.391 86.0469 395.656 87.2734 390.766 87.2734C387.531 87.2734 384.969 86.8125 383.078 85.8906V79.6562C385.547 81.0938 388.039 81.8125 390.555 81.8125C393.055 81.8125 394.992 81.1484 396.367 79.8203C397.742 78.5078 398.43 76.7188 398.43 74.4531V72.5547H398.336C396.648 75.2422 394.156 76.5859 390.859 76.5859C387.797 76.5859 385.367 75.5078 383.57 73.3516C381.773 71.1953 380.875 68.3047 380.875 64.6797C380.875 60.6172 381.875 57.3906 383.875 55C385.875 52.6094 388.508 51.4141 391.773 51.4141C394.695 51.4141 396.883 52.5391 398.336 54.7891H398.43V52H405.836V73.2578ZM398.523 64.4688V62.5703C398.523 61.0547 398.07 59.7656 397.164 58.7031C396.273 57.625 395.109 57.0859 393.672 57.0859C392.031 57.0859 390.742 57.7266 389.805 59.0078C388.867 60.2891 388.398 62.0938 388.398 64.4219C388.398 66.4219 388.844 68.0078 389.734 69.1797C390.625 70.3359 391.844 70.9141 393.391 70.9141C394.922 70.9141 396.156 70.3281 397.094 69.1562C398.047 67.9688 398.523 66.4062 398.523 64.4688ZM433.586 66.1094H417.93C418.18 69.5938 420.375 71.3359 424.516 71.3359C427.156 71.3359 429.477 70.7109 431.477 69.4609V74.8047C429.258 75.9922 426.375 76.5859 422.828 76.5859C418.953 76.5859 415.945 75.5156 413.805 73.375C411.664 71.2188 410.594 68.2188 410.594 64.375C410.594 60.3906 411.75 57.2344 414.062 54.9062C416.375 52.5781 419.219 51.4141 422.594 51.4141C426.094 51.4141 428.797 52.4531 430.703 54.5312C432.625 56.6094 433.586 59.4297 433.586 62.9922V66.1094ZM426.719 61.5625C426.719 58.125 425.328 56.4062 422.547 56.4062C421.359 56.4062 420.328 56.8984 419.453 57.8828C418.594 58.8672 418.07 60.0938 417.883 61.5625H426.719ZM453.648 58.6797C452.758 58.1953 451.719 57.9531 450.531 57.9531C448.922 57.9531 447.664 58.5469 446.758 59.7344C445.852 60.9062 445.398 62.5078 445.398 64.5391V76H437.992V52H445.398V56.4531H445.492C446.664 53.2031 448.773 51.5781 451.82 51.5781C452.602 51.5781 453.211 51.6719 453.648 51.8594V58.6797Z" fill="#170F49"/>
<defs>
<clipPath id="clip0_1_9">
<rect width="123.035" height="113.045" fill="white" transform="matrix(0.999991 0.00417994 -0.00442652 0.99999 0.500397 0)"/>
</clipPath>
</defs>
</svg>
